<?xml version="1.0" encoding="UTF-8" standalone="no"?>
<!DOCTYPE svg PUBLIC "-//W3C//DTD SVG 1.1//EN"
 "http://www.w3.org/Graphics/SVG/1.1/DTD/svg11.dtd">
<!-- Generated by graphviz version 2.38.0 (20140413.2041)
 -->
<!-- Title: G Pages: 1 -->
<svg width="664pt" height="1190pt"
 viewBox="0.00 0.00 664.07 1190.00" xmlns="http://www.w3.org/2000/svg" xmlns:xlink="http://www.w3.org/1999/xlink">
<g id="graph0" class="graph" transform="scale(1 1) rotate(0) translate(4 1186)">
<title>G</title>
<polygon fill="white" stroke="none" points="-4,4 -4,-1186 660.066,-1186 660.066,4 -4,4"/>
<g id="clust1" class="cluster"><title>cluster_Global</title>
<path fill="none" stroke="gray" d="M124.033,-206C124.033,-206 636.066,-206 636.066,-206 642.066,-206 648.066,-212 648.066,-218 648.066,-218 648.066,-1162 648.066,-1162 648.066,-1168 642.066,-1174 636.066,-1174 636.066,-1174 124.033,-1174 124.033,-1174 118.033,-1174 112.033,-1168 112.033,-1162 112.033,-1162 112.033,-218 112.033,-218 112.033,-212 118.033,-206 124.033,-206"/>
<text text-anchor="middle" x="380.049" y="-1161.2" font-family="Times New Roman,serif" font-size="11.00" fill="gray">Global</text>
</g>
<g id="clust2" class="cluster"><title>cluster_\Prometheus2</title>
<path fill="none" stroke="gray" d="M132.033,-214C132.033,-214 628.066,-214 628.066,-214 634.066,-214 640.066,-220 640.066,-226 640.066,-226 640.066,-1134 640.066,-1134 640.066,-1140 634.066,-1146 628.066,-1146 628.066,-1146 132.033,-1146 132.033,-1146 126.033,-1146 120.033,-1140 120.033,-1134 120.033,-1134 120.033,-226 120.033,-226 120.033,-220 126.033,-214 132.033,-214"/>
<text text-anchor="middle" x="380.049" y="-1133.2" font-family="Times New Roman,serif" font-size="11.00" fill="gray">Prometheus2</text>
</g>
<g id="clust3" class="cluster"><title>cluster_\Prometheus2\common</title>
<path fill="none" stroke="gray" d="M140.033,-222C140.033,-222 620.066,-222 620.066,-222 626.066,-222 632.066,-228 632.066,-234 632.066,-234 632.066,-1106 632.066,-1106 632.066,-1112 626.066,-1118 620.066,-1118 620.066,-1118 140.033,-1118 140.033,-1118 134.033,-1118 128.033,-1112 128.033,-1106 128.033,-1106 128.033,-234 128.033,-234 128.033,-228 134.033,-222 140.033,-222"/>
<text text-anchor="middle" x="380.049" y="-1105.2" font-family="Times New Roman,serif" font-size="11.00" fill="gray">common</text>
</g>
<g id="clust5" class="cluster"><title>cluster_\Prometheus2\common\pagerendering</title>
<path fill="none" stroke="gray" d="M148.033,-400C148.033,-400 578.566,-400 578.566,-400 584.566,-400 590.566,-406 590.566,-412 590.566,-412 590.566,-568 590.566,-568 590.566,-574 584.566,-580 578.566,-580 578.566,-580 148.033,-580 148.033,-580 142.033,-580 136.033,-574 136.033,-568 136.033,-568 136.033,-412 136.033,-412 136.033,-406 142.033,-400 148.033,-400"/>
<text text-anchor="middle" x="363.299" y="-567.2" font-family="Times New Roman,serif" font-size="11.00" fill="gray">pagerendering</text>
</g>
<g id="clust6" class="cluster"><title>cluster_\Prometheus2\common\exceptions</title>
<path fill="none" stroke="gray" d="M465.066,-910C465.066,-910 609.066,-910 609.066,-910 615.066,-910 621.066,-916 621.066,-922 621.066,-922 621.066,-1078 621.066,-1078 621.066,-1084 615.066,-1090 609.066,-1090 609.066,-1090 465.066,-1090 465.066,-1090 459.066,-1090 453.066,-1084 453.066,-1078 453.066,-1078 453.066,-922 453.066,-922 453.066,-916 459.066,-910 465.066,-910"/>
<text text-anchor="middle" x="537.066" y="-1077.2" font-family="Times New Roman,serif" font-size="11.00" fill="gray">exceptions</text>
</g>
<g id="clust4" class="cluster"><title>cluster_\Prometheus2\common\user</title>
<path fill="none" stroke="gray" d="M462.066,-722C462.066,-722 612.066,-722 612.066,-722 618.066,-722 624.066,-728 624.066,-734 624.066,-734 624.066,-890 624.066,-890 624.066,-896 618.066,-902 612.066,-902 612.066,-902 462.066,-902 462.066,-902 456.066,-902 450.066,-896 450.066,-890 450.066,-890 450.066,-734 450.066,-734 450.066,-728 456.066,-722 462.066,-722"/>
<text text-anchor="middle" x="537.066" y="-889.2" font-family="Times New Roman,serif" font-size="11.00" fill="gray">user</text>
</g>
<g id="clust7" class="cluster"><title>cluster_\Prometheus2\common\widgets</title>
<path fill="none" stroke="gray" d="M155.033,-588C155.033,-588 588.566,-588 588.566,-588 594.566,-588 600.566,-594 600.566,-600 600.566,-600 600.566,-702 600.566,-702 600.566,-708 594.566,-714 588.566,-714 588.566,-714 155.033,-714 155.033,-714 149.033,-714 143.033,-708 143.033,-702 143.033,-702 143.033,-600 143.033,-600 143.033,-594 149.033,-588 155.033,-588"/>
<text text-anchor="middle" x="371.799" y="-701.2" font-family="Times New Roman,serif" font-size="11.00" fill="gray">widgets</text>
</g>
<g id="clust8" class="cluster"><title>cluster_\Prometheus2\common\modules</title>
<path fill="none" stroke="gray" d="M481.066,-230C481.066,-230 593.066,-230 593.066,-230 599.066,-230 605.066,-236 605.066,-242 605.066,-242 605.066,-380 605.066,-380 605.066,-386 599.066,-392 593.066,-392 593.066,-392 481.066,-392 481.066,-392 475.066,-392 469.066,-386 469.066,-380 469.066,-380 469.066,-242 469.066,-242 469.066,-236 475.066,-230 481.066,-230"/>
<text text-anchor="middle" x="537.066" y="-379.2" font-family="Times New Roman,serif" font-size="11.00" fill="gray">modules</text>
</g>
<g id="clust9" class="cluster"><title>cluster_\Prometheus2\common\modules\admin</title>
<path fill="none" stroke="gray" d="M489.066,-238C489.066,-238 585.066,-238 585.066,-238 591.066,-238 597.066,-244 597.066,-250 597.066,-250 597.066,-352 597.066,-352 597.066,-358 591.066,-364 585.066,-364 585.066,-364 489.066,-364 489.066,-364 483.066,-364 477.066,-358 477.066,-352 477.066,-352 477.066,-250 477.066,-250 477.066,-244 483.066,-238 489.066,-238"/>
<text text-anchor="middle" x="537.066" y="-351.2" font-family="Times New Roman,serif" font-size="11.00" fill="gray">admin</text>
</g>
<!-- \\Prometheus2\\common\\user\\UserModel -->
<g id="node1" class="node"><title>\\Prometheus2\\common\\user\\UserModel</title>
<polygon fill="none" stroke="black" points="575.566,-874 498.566,-874 498.566,-838 575.566,-838 575.566,-874"/>
<text text-anchor="middle" x="537.066" y="-853.2" font-family="Courier,monospace" font-size="11.00">UserModel</text>
</g>
<!-- \\Prometheus2\\common\\user\\SessionManager -->
<g id="node2" class="node"><title>\\Prometheus2\\common\\user\\SessionManager</title>
<polygon fill="none" stroke="black" points="592.566,-820 481.566,-820 481.566,-784 592.566,-784 592.566,-820"/>
<text text-anchor="middle" x="537.066" y="-799.2" font-family="Courier,monospace" font-size="11.00">SessionManager</text>
</g>
<!-- \\Prometheus2\\common\\user\\AuthenticationManager -->
<g id="node3" class="node"><title>\\Prometheus2\\common\\user\\AuthenticationManager</title>
<polygon fill="none" stroke="black" points="616.066,-766 458.066,-766 458.066,-730 616.066,-730 616.066,-766"/>
<text text-anchor="middle" x="537.066" y="-745.2" font-family="Courier,monospace" font-size="11.00">AuthenticationManager</text>
</g>
<!-- \\Prometheus2\\common\\pagerendering\\PageRenderer -->
<g id="node4" class="node"><title>\\Prometheus2\\common\\pagerendering\\PageRenderer</title>
<polygon fill="none" stroke="black" points="242.033,-444 144.033,-444 144.033,-408 242.033,-408 242.033,-444"/>
<text text-anchor="start" x="159.033" y="-429.2" font-family="Courier,monospace" font-size="11.00">«abstract»</text>
<text text-anchor="start" x="152.033" y="-417.2" font-family="Courier,monospace" font-size="11.00">PageRenderer</text>
</g>
<!-- \\Prometheus2\\common\\pagerendering\\Formatting -->
<g id="node5" class="node"><title>\\Prometheus2\\common\\pagerendering\\Formatting</title>
<polygon fill="none" stroke="black" points="579.066,-552 495.066,-552 495.066,-516 579.066,-516 579.066,-552"/>
<text text-anchor="middle" x="537.066" y="-531.2" font-family="Courier,monospace" font-size="11.00">Formatting</text>
</g>
<!-- \\Prometheus2\\common\\pagerendering\\LoginPage -->
<g id="node6" class="node"><title>\\Prometheus2\\common\\pagerendering\\LoginPage</title>
<polygon fill="none" stroke="black" points="575.566,-498 498.566,-498 498.566,-462 575.566,-462 575.566,-498"/>
<text text-anchor="middle" x="537.066" y="-477.2" font-family="Courier,monospace" font-size="11.00">LoginPage</text>
</g>
<!-- \\Prometheus2\\common\\pagerendering\\LoginPage&#45;&gt;\\Prometheus2\\common\\pagerendering\\PageRenderer -->
<g id="edge4" class="edge"><title>\\Prometheus2\\common\\pagerendering\\LoginPage&#45;&gt;\\Prometheus2\\common\\pagerendering\\PageRenderer</title>
<path fill="none" stroke="black" d="M498.484,-474.067C438.939,-464.666 322.468,-446.277 252.114,-435.17"/>
<polygon fill="none" stroke="black" points="252.504,-431.688 242.081,-433.586 251.413,-438.603 252.504,-431.688"/>
</g>
<!-- \\Prometheus2\\common\\pagerendering\\PageOptions -->
<g id="node7" class="node"><title>\\Prometheus2\\common\\pagerendering\\PageOptions</title>
<polygon fill="none" stroke="black" points="582.566,-444 491.566,-444 491.566,-408 582.566,-408 582.566,-444"/>
<text text-anchor="middle" x="537.066" y="-423.2" font-family="Courier,monospace" font-size="11.00">PageOptions</text>
</g>
<!-- \\Prometheus2\\common\\exceptions\\DatabaseException -->
<g id="node8" class="node"><title>\\Prometheus2\\common\\exceptions\\DatabaseException</title>
<polygon fill="none" stroke="black" points="602.566,-1062 471.566,-1062 471.566,-1026 602.566,-1026 602.566,-1062"/>
<text text-anchor="middle" x="537.066" y="-1041.2" font-family="Courier,monospace" font-size="11.00">DatabaseException</text>
</g>
<!-- \\Prometheus2\\common\\exceptions\\BaseException -->
<g id="node16" class="node"><title>\\Prometheus2\\common\\exceptions\\BaseException</title>
<ellipse fill="none" stroke="black" cx="193.033" cy="-180" rx="193.066" ry="18"/>
<text text-anchor="middle" x="193.033" y="-176.3" font-family="Times New Roman,serif" font-size="14.00" fill="gray">\Prometheus2\common\exceptions\BaseException</text>
</g>
<!-- \\Prometheus2\\common\\exceptions\\DatabaseException&#45;&gt;\\Prometheus2\\common\\exceptions\\BaseException -->
<g id="edge1" class="edge"><title>\\Prometheus2\\common\\exceptions\\DatabaseException&#45;&gt;\\Prometheus2\\common\\exceptions\\BaseException</title>
<path fill="none" stroke="black" d="M471.184,-1032.95C463.099,-1029.08 455.707,-1023.91 450.066,-1017 362.333,-909.533 441.964,-522.971 386.066,-396 349.808,-313.641 270.109,-240.671 225.627,-204.352"/>
<polygon fill="none" stroke="black" points="227.732,-201.554 217.75,-198.004 223.339,-207.004 227.732,-201.554"/>
</g>
<!-- \\Prometheus2\\common\\exceptions\\InvalidLogin -->
<g id="node9" class="node"><title>\\Prometheus2\\common\\exceptions\\InvalidLogin</title>
<polygon fill="none" stroke="black" points="586.066,-1008 488.066,-1008 488.066,-972 586.066,-972 586.066,-1008"/>
<text text-anchor="middle" x="537.066" y="-987.2" font-family="Courier,monospace" font-size="11.00">InvalidLogin</text>
</g>
<!-- \\Prometheus2\\common\\exceptions\\InvalidLogin&#45;&gt;\\Prometheus2\\common\\exceptions\\BaseException -->
<g id="edge3" class="edge"><title>\\Prometheus2\\common\\exceptions\\InvalidLogin&#45;&gt;\\Prometheus2\\common\\exceptions\\BaseException</title>
<path fill="none" stroke="black" d="M488.027,-985.006C473.804,-981.146 459.523,-974.471 450.066,-963 369.402,-865.165 437.719,-511.802 386.066,-396 349.409,-313.818 269.87,-240.777 225.52,-204.4"/>
<polygon fill="none" stroke="black" points="227.641,-201.614 217.666,-198.04 223.235,-207.054 227.641,-201.614"/>
</g>
<!-- \\Prometheus2\\common\\exceptions\\NotLoggedInException -->
<g id="node10" class="node"><title>\\Prometheus2\\common\\exceptions\\NotLoggedInException</title>
<polygon fill="none" stroke="black" points="613.066,-954 461.066,-954 461.066,-918 613.066,-918 613.066,-954"/>
<text text-anchor="middle" x="537.066" y="-933.2" font-family="Courier,monospace" font-size="11.00">NotLoggedInException</text>
</g>
<!-- \\Prometheus2\\common\\exceptions\\NotLoggedInException&#45;&gt;\\Prometheus2\\common\\exceptions\\BaseException -->
<g id="edge6" class="edge"><title>\\Prometheus2\\common\\exceptions\\NotLoggedInException&#45;&gt;\\Prometheus2\\common\\exceptions\\BaseException</title>
<path fill="none" stroke="black" d="M463.408,-917.951C458.396,-914.619 453.844,-910.672 450.066,-906 306.422,-728.368 480.421,-604.048 386.066,-396 348.898,-314.048 269.564,-240.914 225.382,-204.462"/>
<polygon fill="none" stroke="black" points="227.523,-201.691 217.56,-198.088 223.102,-207.118 227.523,-201.691"/>
</g>
<!-- \\Prometheus2\\common\\widgets\\BaseWidget -->
<g id="node11" class="node"><title>\\Prometheus2\\common\\widgets\\BaseWidget</title>
<polygon fill="none" stroke="black" points="235.033,-686 151.033,-686 151.033,-650 235.033,-650 235.033,-686"/>
<text text-anchor="start" x="159.033" y="-671.2" font-family="Courier,monospace" font-size="11.00">«abstract»</text>
<text text-anchor="start" x="159.033" y="-659.2" font-family="Courier,monospace" font-size="11.00">BaseWidget</text>
</g>
<!-- \\Prometheus2\\common\\widgets\\DataGrid -->
<g id="node12" class="node"><title>\\Prometheus2\\common\\widgets\\DataGrid</title>
<polygon fill="none" stroke="black" points="572.566,-686 501.566,-686 501.566,-650 572.566,-650 572.566,-686"/>
<text text-anchor="middle" x="537.066" y="-665.2" font-family="Courier,monospace" font-size="11.00">DataGrid</text>
</g>
<!-- \\Prometheus2\\common\\widgets\\DataGrid&#45;&gt;\\Prometheus2\\common\\widgets\\BaseWidget -->
<g id="edge7" class="edge"><title>\\Prometheus2\\common\\widgets\\DataGrid&#45;&gt;\\Prometheus2\\common\\widgets\\BaseWidget</title>
<path fill="none" stroke="black" d="M501.388,-668C440.971,-668 316.135,-668 245.562,-668"/>
<polygon fill="none" stroke="black" points="245.139,-664.5 235.139,-668 245.139,-671.5 245.139,-664.5"/>
</g>
<!-- \\Iterator -->
<g id="node17" class="node"><title>\\Iterator</title>
<ellipse fill="none" stroke="black" cx="193.033" cy="-126" rx="39.7935" ry="18"/>
<text text-anchor="middle" x="193.033" y="-122.3" font-family="Times New Roman,serif" font-size="14.00" fill="gray">\Iterator</text>
</g>
<!-- \\Prometheus2\\common\\widgets\\DataGrid&#45;&gt;\\Iterator -->
<g id="edge8" class="edge"><title>\\Prometheus2\\common\\widgets\\DataGrid&#45;&gt;\\Iterator</title>
<path fill="none" stroke="black" stroke-dasharray="1,5" d="M501.436,-665.794C483.444,-662.769 462.645,-655.98 450.066,-641 309.397,-473.482 540.023,-308.393 386.066,-153 348.554,-115.138 284.001,-113.778 240.196,-118.254"/>
<polygon fill="none" stroke="black" points="239.615,-114.798 230.085,-119.427 240.422,-121.751 239.615,-114.798"/>
</g>
<!-- \\ArrayAccess -->
<g id="node18" class="node"><title>\\ArrayAccess</title>
<ellipse fill="none" stroke="black" cx="193.033" cy="-72" rx="60.3893" ry="18"/>
<text text-anchor="middle" x="193.033" y="-68.3" font-family="Times New Roman,serif" font-size="14.00" fill="gray">\ArrayAccess</text>
</g>
<!-- \\Prometheus2\\common\\widgets\\DataGrid&#45;&gt;\\ArrayAccess -->
<g id="edge9" class="edge"><title>\\Prometheus2\\common\\widgets\\DataGrid&#45;&gt;\\ArrayAccess</title>
<path fill="none" stroke="black" stroke-dasharray="1,5" d="M501.36,-665.857C483.345,-662.851 462.548,-656.061 450.066,-641 295.28,-454.244 555.673,-272.406 386.066,-99 353.226,-65.4252 299.156,-60.424 256.743,-62.8255"/>
<polygon fill="none" stroke="black" points="256.233,-59.353 246.508,-63.5587 256.733,-66.3351 256.233,-59.353"/>
</g>
<!-- \\Countable -->
<g id="node19" class="node"><title>\\Countable</title>
<ellipse fill="none" stroke="black" cx="193.033" cy="-18" rx="50.0912" ry="18"/>
<text text-anchor="middle" x="193.033" y="-14.3" font-family="Times New Roman,serif" font-size="14.00" fill="gray">\Countable</text>
</g>
<!-- \\Prometheus2\\common\\widgets\\DataGrid&#45;&gt;\\Countable -->
<g id="edge10" class="edge"><title>\\Prometheus2\\common\\widgets\\DataGrid&#45;&gt;\\Countable</title>
<path fill="none" stroke="black" stroke-dasharray="1,5" d="M501.298,-665.908C483.263,-662.918 462.469,-656.127 450.066,-641 365.606,-537.993 478.703,-140.719 386.066,-45 351.276,-9.05315 292.178,-5.73894 248.71,-9.2861"/>
<polygon fill="none" stroke="black" points="248.198,-5.8191 238.578,-10.2582 248.866,-12.7871 248.198,-5.8191"/>
</g>
<!-- \\Prometheus2\\common\\widgets\\DataGridColumn -->
<g id="node13" class="node"><title>\\Prometheus2\\common\\widgets\\DataGridColumn</title>
<polygon fill="none" stroke="black" points="592.566,-632 481.566,-632 481.566,-596 592.566,-596 592.566,-632"/>
<text text-anchor="middle" x="537.066" y="-611.2" font-family="Courier,monospace" font-size="11.00">DataGridColumn</text>
</g>
<!-- \\Prometheus2\\common\\modules\\admin\\UserAdminPage -->
<g id="node14" class="node"><title>\\Prometheus2\\common\\modules\\admin\\UserAdminPage</title>
<polygon fill="none" stroke="black" points="589.066,-336 485.066,-336 485.066,-300 589.066,-300 589.066,-336"/>
<text text-anchor="middle" x="537.066" y="-315.2" font-family="Courier,monospace" font-size="11.00">UserAdminPage</text>
</g>
<!-- \\Prometheus2\\common\\modules\\admin\\UserAdminPage&#45;&gt;\\Prometheus2\\common\\pagerendering\\PageRenderer -->
<g id="edge2" class="edge"><title>\\Prometheus2\\common\\modules\\admin\\UserAdminPage&#45;&gt;\\Prometheus2\\common\\pagerendering\\PageRenderer</title>
<path fill="none" stroke="black" d="M484.86,-334.169C422.465,-353.871 317.309,-387.075 251.999,-407.697"/>
<polygon fill="none" stroke="black" points="250.749,-404.421 242.267,-410.77 252.857,-411.096 250.749,-404.421"/>
</g>
<!-- \\Prometheus2\\common\\modules\\admin\\Prom2Admin -->
<g id="node15" class="node"><title>\\Prometheus2\\common\\modules\\admin\\Prom2Admin</title>
<polygon fill="none" stroke="black" points="579.066,-282 495.066,-282 495.066,-246 579.066,-246 579.066,-282"/>
<text text-anchor="middle" x="537.066" y="-261.2" font-family="Courier,monospace" font-size="11.00">Prom2Admin</text>
</g>
<!-- \\Prometheus2\\common\\modules\\admin\\Prom2Admin&#45;&gt;\\Prometheus2\\common\\pagerendering\\PageRenderer -->
<g id="edge5" class="edge"><title>\\Prometheus2\\common\\modules\\admin\\Prom2Admin&#45;&gt;\\Prometheus2\\common\\pagerendering\\PageRenderer</title>
<path fill="none" stroke="black" d="M494.839,-275.287C480.469,-279.655 464.367,-285.042 450.066,-291 370.152,-324.291 281.845,-373.913 232.632,-402.809"/>
<polygon fill="none" stroke="black" points="230.744,-399.859 223.909,-407.955 234.3,-405.889 230.744,-399.859"/>
</g>
</g>
</svg>
